:FULLY-SPECIFIED
:FORCE-ALL-JOINTS-BE-3DOF
:DEGREES
917
root 2.74942 16.224 32.4387 2.37967 10.7994 362.266
lfemur -13.4821 -2.30139 1.60607
ltibia 27.1077 0 0
lfoot 3.81001 -45.3832 0
ltoes 21.7177 0 0
rfemur -16.9144 -1.75037 -8.27501
rtibia 38.9174 0 0
rfoot 10.9709 -13.2901 0
rtoes -24.6568 0 0
lowerback -0.647427 0.199252 -2.83447
upperback -0.803588 0.271903 -4.74572
thorax -0.450599 0.141607 -3.28882
lowerneck -7.16431 -5.32299 -1.41697
upperneck 4.24713 -7.35734 6.01188
head 2.9374 -3.47744 1.84449
lclavicle -7.21079e-15 -1.81746e-15 0
lhumerus -51.2911 -35.6876 107.916
lradius 59.1095 0 0
lwrist 13.3936 0 0
lhand 38.1371 21.1403 0
lfingers 7.12502 0 0
lthumb 60.8007 33.7922 0
rclavicle -7.21079e-15 -1.81746e-15 0
rhumerus -60.8577 33.5603 -105.188
rradius 118.027 0 0
rwrist 4.17323 0 0
rhand 0.726913 -10.4452 0
rfingers 7.12502 0 0
rthumb 26.2836 -758.614 0
918
root 2.6693 16.1999 32.4883 2.71119 10.0685 362.356
lfemur -12.1913 -4.74532 2.98986
ltibia 24.1545 0 0
lfoot 6.3176 -49.2971 0
ltoes 25.5092 0 0
rfemur -16.7793 -0.726183 -8.5435
rtibia 37.4309 0 0
rfoot 11.2351 -12.0362 0
rtoes -32.5507 0 0
lowerback -1.06021 0.238764 -2.8244
upperback -0.926272 0.340902 -4.96828
thorax -0.342851 0.175228 -3.52479
lowerneck -7.20318 -5.10291 -1.31193
upperneck 4.24975 -7.07818 6.09653
head 2.93345 -3.3335 1.86854
lclavicle -1.1208e-14 0 0
lhumerus -51.3079 -35.6989 107.644
lradius 59.1404 0 0
lwrist 13.5778 0 0
lhand 39.3467 22.0271 0
lfingers 7.12502 0 0
lthumb 61.8515 33.7047 0
rclavicle -1.1208e-14 0 0
rhumerus -62.2032 34.529 -104.699
rradius 118.296 0 0
rwrist 5.66647 0 0
rhand 1.94218 -10.0741 0
rfingers 7.12502 0 0
rthumb 27.4493 -758.094 0
919
root 2.59299 16.1541 32.5234 2.9518 9.17877 362.699
lfemur -10.6016 -4.96902 2.96862
ltibia 21.7791 0 0
lfoot 4.38286 -48.8693 0
ltoes 23.7403 0 0
rfemur -17.3981 -0.978277 -8.89403
rtibia 37.7948 0 0
rfoot 9.67063 -11.4149 0
rtoes -34.5292 0 0
lowerback -1.37096 0.136673 -2.80184
upperback -0.995503 0.22025 -5.28963
thorax -0.2484 0.113119 -3.87996
lowerneck -7.1796 -4.69322 -1.09156
upperneck 4.19653 -6.54482 6.063
head 2.88247 -3.06752 1.84531
lclavicle -9.87131e-15 0 0
lhumerus -51.6247 -36.0898 107.477
lradius 58.9491 0 0
lwrist 14.2314 0 0
lhand 40.0282 22.8118 0
lfingers 7.12502 0 0
lthumb 62.4023 33.6717 0
rclavicle -9.87131e-15 0 0
rhumerus -61.2939 36.3078 -100.397
rradius 117.783 0 0
rwrist 4.04886 0 0
rhand 4.9254 -10.1345 0
rfingers 7.12502 0 0
rthumb 30.2647 -757.38 0
920
root 2.51668 16.1084 32.5584 3.1924 8.28905 363.043
lfemur -9.01183 -5.19272 2.94739
ltibia 19.4037 0 0
lfoot 2.44811 -48.4415 0
ltoes 21.9713 0 0
rfemur -18.017 -1.23037 -9.24456
rtibia 38.1587 0 0
rfoot 8.10617 -10.7936 0
rtoes -36.5078 0 0
lowerback -1.68172 0.0345829 -2.77929
upperback -1.06473 0.099598 -5.61099
thorax -0.153948 0.0510094 -4.23514
lowerneck -7.15603 -4.28353 -0.871184
upperneck 4.14332 -6.01146 6.02948
head 2.83148 -2.80154 1.82208
lclavicle -8.53462e-15 0 0
lhumerus -51.9415 -36.4807 107.31
lradius 58.7579 0 0
lwrist 14.8851 0 0
lhand 40.7096 23.5966 0
lfingers 7.12502 0 0
lthumb 62.9531 33.6388 0
rclavicle -8.53462e-15 0 0
rhumerus -60.3846 38.0866 -96.0948
rradius 117.271 0 0
rwrist 2.43124 0 0
rhand 7.90861 -10.1949 0
rfingers 7.12502 0 0
rthumb 33.08 -756.665 0
921
root 2.44037 16.0626 32.5935 3.43301 7.39932 363.386
lfemur -7.42209 -5.41642 2.92615
ltibia 17.0283 0 0
lfoot 0.513371 -48.0137 0
ltoes 20.2024 0 0
rfemur -18.6358 -1.48246 -9.59509
rtibia 38.5226 0 0
rfoot 6.5417 -10.1723 0
rtoes -38.4863 0 0
lowerback -1.99247 -0.0675077 -2.75673
upperback -1.13397 -0.021054 -5.93234
thorax -0.0594971 -0.0110999 -4.59031
lowerneck -7.13245 -3.87384 -0.650811
upperneck 4.0901 -5.4781 5.99595
head 2.7805 -2.53556 1.79885
lclavicle -7.19793e-15 0 0
lhumerus -52.2583 -36.8716 107.143
lradius 58.5666 0 0
lwrist 15.5387 0 0
lhand 41.3911 24.3813 0
lfingers 7.12502 0 0
lthumb 63.5039 33.6058 0
rclavicle -7.19793e-15 0 0
rhumerus -59.4753 39.8654 -91.7927
rradius 116.758 0 0
rwrist 0.813631 0 0
rhand 10.8918 -10.2553 0
rfingers 7.12502 0 0
rthumb 35.8954 -755.951 0
922
root 2.36406 16.0169 32.6285 3.67362 6.5096 363.729
lfemur -5.83236 -5.64012 2.90491
ltibia 14.653 0 0
lfoot -1.42137 -47.5858 0
ltoes 18.4334 0 0
rfemur -19.2547 -1.73456 -9.94561
rtibia 38.8864 0 0
rfoot 4.97724 -9.55094 0
rtoes -40.4649 0 0
lowerback -2.30322 -0.169598 -2.73417
upperback -1.2032 -0.141706 -6.25369
thorax 0.0349541 -0.0732091 -4.94548
lowerneck -7.10887 -3.46414 -0.430437
upperneck 4.03689 -4.94475 5.96243
head 2.72951 -2.26959 1.77563
lclavicle -5.86125e-15 0 0
lhumerus -52.575 -37.2625 106.975
lradius 58.3753 0 0
lwrist 16.1924 0 0
lhand 42.0726 25.1661 0
lfingers 7.12502 0 0
lthumb 64.0548 33.5729 0
rclavicle -5.86125e-15 0 0
rhumerus -58.566 41.6443 -87.4905
rradius 116.246 0 0
rwrist -0.803981 0 0
rhand 13.875 -10.3157 0
rfingers 7.12502 0 0
rthumb 38.7108 -755.237 0
923
root 2.28775 15.9711 32.6636 3.91423 5.61987 364.072
lfemur -4.24262 -5.86382 2.88367
ltibia 12.2776 0 0
lfoot -3.35611 -47.158 0
ltoes 16.6645 0 0
rfemur -19.8735 -1.98665 -10.2961
rtibia 39.2503 0 0
rfoot 3.41277 -8.92962 0
rtoes -42.4434 0 0
lowerback -2.61397 -0.271689 -2.71161
upperback -1.27243 -0.262358 -6.57504
thorax 0.129405 -0.135318 -5.30065
lowerneck -7.08529 -3.05445 -0.210064
upperneck 3.98367 -4.41139 5.9289
head 2.67853 -2.00361 1.7524
lclavicle -4.52456e-15 0 0
lhumerus -52.8918 -37.6534 106.808
lradius 58.184 0 0
lwrist 16.846 0 0
lhand 42.7541 25.9508 0
lfingers 7.12502 0 0
lthumb 64.6056 33.5399 0
rclavicle -4.52456e-15 0 0
rhumerus -57.6567 43.4231 -83.1884
rradius 115.733 0 0
rwrist -2.42159 0 0
rhand 16.8583 -10.3761 0
rfingers 7.12502 0 0
rthumb 41.5262 -754.523 0
924
root 2.21144 15.9254 32.6986 4.15483 4.73015 364.416
lfemur -2.65289 -6.08752 2.86244
ltibia 9.90219 0 0
lfoot -5.29086 -46.7302 0
ltoes 14.8955 0 0
rfemur -20.4924 -2.23875 -10.6467
rtibia 39.6142 0 0
rfoot 1.8483 -8.30831 0
rtoes -44.422 0 0
lowerback -2.92473 -0.373779 -2.68906
upperback -1.34166 -0.38301 -6.8964
thorax 0.223857 -0.197428 -5.65583
lowerneck -7.06172 -2.64476 0.0103089
upperneck 3.93046 -3.87803 5.89538
head 2.62754 -1.73763 1.72917
lclavicle -3.18787e-15 0 0
lhumerus -53.2086 -38.0443 106.641
lradius 57.9928 0 0
lwrist 17.4997 0 0
lhand 43.4355 26.7356 0
lfingers 7.12502 0 0
lthumb 65.1564 33.507 0
rclavicle -3.18787e-15 0 0
rhumerus -56.7474 45.2019 -78.8863
rradius 115.221 0 0
rwrist -4.03921 0 0
rhand 19.8415 -10.4365 0
rfingers 7.12502 0 0
rthumb 44.3415 -753.808 0
